<?xml version="1.0" encoding="UTF-8" standalone="no"?>
<svg width="89px" height="89px" viewBox="0 0 89 89" version="1.1" xmlns="http://www.w3.org/2000/svg" xmlns:xlink="http://www.w3.org/1999/xlink">
    <!-- Generator: Sketch 3.8.1 (29687) - http://www.bohemiancoding.com/sketch -->
    <title>Group 2</title>
    <desc>Created with Sketch.</desc>
    <defs></defs>
    <g id="2-Subway-Entrance" stroke="none" stroke-width="1" fill="none" fill-rule="evenodd">
        <g id="Group-2" fill="#FFFFFF">
            <rect id="Rectangle-path" transform="translate(44.450640, 44.450640) rotate(-45.000000) translate(-44.450640, -44.450640) " x="15.2206403" y="41.9306403" width="58.46" height="5.04"></rect>
            <rect id="Rectangle-path" transform="translate(44.450640, 44.450640) rotate(-45.000000) translate(-44.450640, -44.450640) " x="41.9306403" y="15.2206403" width="5.04" height="58.46"></rect>
            <path d="M44.2799176,88.3523961 C26.3707571,88.3518394 10.2252949,77.5633703 3.37183124,61.0174323 C-3.48163245,44.4714942 0.306507092,25.4263633 12.9699176,12.7623961 C30.295055,-4.33450111 58.1716048,-4.24208242 75.3830005,12.9693132 C92.5943961,30.1807089 92.6868148,58.0572587 75.5899176,75.3823961 C67.303657,83.7128456 56.0297076,88.3830188 44.2799176,88.3523961 L44.2799176,88.3523961 Z M44.2799176,4.84239611 C28.3995454,4.83007122 14.0781793,14.392889 8.003323,29.0653971 C1.92846668,43.7379052 5.29856515,60.6255174 16.5399176,71.8423961 C31.8685809,87.1627747 56.7145384,87.1560588 72.0349172,71.8273957 C87.355296,56.4987326 87.3485804,31.6527751 72.0199176,16.3323961 L72.0199176,16.3323961 C64.677206,8.95381154 54.6894455,4.81684802 44.2799176,4.84239611 L44.2799176,4.84239611 Z" id="Shape"></path>
        </g>
    </g>
</svg>