<?xml version="1.0" encoding="UTF-8" standalone="no"?>
<svg width="54px" height="54px" viewBox="0 0 54 54" version="1.1" xmlns="http://www.w3.org/2000/svg" xmlns:xlink="http://www.w3.org/1999/xlink">
    <!-- Generator: Sketch 3.8.1 (29687) - http://www.bohemiancoding.com/sketch -->
    <title>Group</title>
    <desc>Created with Sketch.</desc>
    <defs></defs>
    <g id="2-Subway-Entrance" stroke="none" stroke-width="1" fill="none" fill-rule="evenodd">
        <g id="Desktop:-Subway-Entrance-map-view" transform="translate(-31.000000, -656.000000)">
            <g id="Group" transform="translate(31.000000, 656.000000)">
                <circle id="Current-Loc-Btn" fill="#FFFFFF" cx="27" cy="27" r="27"></circle>
                <g id="Current-Location" transform="translate(11.000000, 11.000000)" fill="#898989">
                    <path d="M24.0932052,22.1160426 C23.5496233,22.808111 22.9291449,23.4358577 22.2433158,23.9871582 C21.5247791,24.5292929 20.7456515,24.9855904 19.9208555,25.3457592 C19.0849319,25.6792667 18.2130203,25.9124969 17.3223912,26.0415904 C17.315766,26.0423301 17.3091409,26.0431662 17.3025158,26.0439059 L17.3025158,24.2653491 C17.3025158,23.5459763 16.7193761,22.9628044 16.0000354,22.9628044 L15.9678103,22.9628044 C15.2484695,22.9628044 14.6653298,23.5459763 14.6653298,24.2653491 L14.6653298,26.0349974 C14.6442002,26.032521 14.6231027,26.0298195 14.6019731,26.0272145 C13.7434082,25.894326 12.9031751,25.664312 12.0966143,25.3411602 C11.3103791,24.9977471 10.5655349,24.5671461 9.87504241,24.057912 C9.18287759,23.5142336 8.55500221,22.8936909 8.00363739,22.2077652 C7.46169568,21.4894215 7.00552683,20.7105512 6.64542231,19.8860125 C6.31374794,19.0548165 6.08106452,18.1879863 5.9515208,17.3025029 L7.73467658,17.3025029 C8.45404945,17.3025029 9.03718915,16.7193311 9.03718915,15.9999582 L9.03718915,15.9678617 C9.03718915,15.2484888 8.45404945,14.665317 7.73467658,14.665317 L5.95200322,14.665317 C5.95576603,14.6323522 5.95968965,14.5994195 5.96374191,14.5664868 C6.09659819,13.7080185 6.3265801,12.8678818 6.6496997,12.0614175 C6.99314492,11.275118 7.42374593,10.5302094 7.93301226,9.83965266 C8.47669065,9.14752 9.09716905,8.51970894 9.78306251,7.96834412 C10.5016635,7.42620945 11.2808233,6.9698798 12.1056836,6.60967879 C12.9294505,6.2810597 13.7881439,6.04950191 14.6653298,5.91934714 L14.6653298,7.73466372 C14.6653298,8.45403658 15.2484695,9.03717628 15.9678103,9.03717628 L16.0000354,9.03717628 C16.7193761,9.03717628 17.3025158,8.45400442 17.3025158,7.73466372 L17.3025158,5.9140406 C17.3431027,5.91860744 17.3836896,5.92330291 17.4242444,5.92828784 C18.2833238,6.0612406 19.1240394,6.29144764 19.9310183,6.61485668 C20.7167067,6.95817327 21.4610685,7.38858131 22.1511429,7.89749387 C22.8435972,8.44139739 23.4716655,9.06219739 24.0231912,9.74844462 C24.5650042,10.466724 25.0210444,11.2454979 25.3810846,12.0699723 C25.7142062,12.9048989 25.9473077,13.7757491 26.0765298,14.665317 L24.2653298,14.665317 C23.5459891,14.665317 22.9628173,15.2484888 22.9628173,15.9678617 L22.9628173,15.9999582 C22.9628173,16.7193311 23.5459891,17.3025029 24.2653298,17.3025029 L26.0729922,17.3025029 C26.0696153,17.3317692 26.0660133,17.3609713 26.0624113,17.3902054 C25.9294907,18.24832 25.6995409,19.0881029 25.3765821,19.8942778 C25.0331369,20.6805773 24.6024716,21.425518 24.0932052,22.1160426 M30.6974907,14.665317 L28.4902947,14.665317 C28.197953,11.9631662 27.033957,9.41030593 25.1751268,7.40167075 C24.1651168,6.31026171 22.9284052,5.39248884 21.5942143,4.73679437 C20.2381861,4.07039035 18.7982826,3.66178734 17.3025158,3.49908583 L17.3025158,1.30250291 C17.3025158,0.58313005 16.7193761,-9.64824115e-06 16.0000354,-9.64824115e-06 L15.9678103,-9.64824115e-06 C15.2484695,-9.64824115e-06 14.6653298,0.583162211 14.6653298,1.30250291 L14.6653298,3.49664161 C13.8507932,3.58469789 13.0444253,3.75299538 12.2710223,3.99638834 C11.5046947,4.23756221 10.754962,4.55624362 10.0464595,4.9346798 C9.34287759,5.31051095 8.69741025,5.76970291 8.07448764,6.26610492 C5.72819618,8.13596623 4.09812583,10.9614537 3.63742231,13.9235924 C3.59899015,14.1706838 3.56740824,14.4179682 3.54245146,14.665317 L1.30251578,14.665317 C0.583142915,14.665317 3.21608038e-06,15.2484888 3.21608038e-06,15.9678617 L3.21608038e-06,15.9999582 C3.21608038e-06,16.7193311 0.583142915,17.3025029 1.30251578,17.3025029 L3.53978211,17.3025029 C3.59342633,17.8321914 3.68038915,18.360111 3.80214995,18.8850396 C4.14308663,20.3546597 4.77671879,21.7844004 5.63145648,23.0270617 C7.39367558,25.5890557 10.0645339,27.4708486 13.0996454,28.1872949 C13.6165339,28.309313 14.1396937,28.396919 14.6653298,28.4520426 L14.6653298,30.6974456 C14.6653298,31.4168185 15.2484695,31.9999904 15.9678103,31.9999904 L16.0000354,31.9999904 C16.7193761,31.9999904 17.3025158,31.4168185 17.3025158,30.6974456 L17.3025158,28.4531361 C19.0715208,28.2694979 20.8005178,27.7171039 22.3495108,26.8135783 C25.0341339,25.2477331 27.0509057,22.6804969 27.9930565,19.7262697 C28.2428173,18.9431542 28.4079952,18.1256909 28.4937037,17.3025029 L30.6974907,17.3025029 C31.4168314,17.3025029 32.0000032,16.7193311 32.0000032,15.9999582 L32.0000032,15.9678617 C32.0000032,15.2484888 31.4168314,14.665317 30.6974907,14.665317" id="Fill-1"></path>
                    <path d="M19.018002,16.2415309 C19.0157508,16.2762002 19.0000241,16.400566 18.996004,16.4392876 C18.9681849,16.5989017 18.9289487,16.7564253 18.8811578,16.9111831 C18.8569085,16.9897841 18.8286392,17.0670987 18.7990834,17.1438665 C18.7825849,17.1810766 18.7649608,17.2178364 18.7473367,17.2544997 C18.6680281,17.4192273 18.5738935,17.5764937 18.4714291,17.7277138 C18.452808,17.7551791 18.4332221,17.7820012 18.4137327,17.8088555 C18.4116744,17.8114927 18.4097447,17.8140012 18.4080402,17.8161238 C18.3557146,17.8816354 18.3001407,17.9444776 18.2435698,18.006355 C18.1251216,18.1358344 17.9955779,18.2547329 17.8601809,18.3662344 C17.8268302,18.3910304 17.7926754,18.414765 17.7585206,18.4385319 C17.6893749,18.4865158 17.6178171,18.5309942 17.5456161,18.5742183 C17.4731256,18.6176354 17.3984804,18.6572896 17.3232241,18.6956253 C17.2854673,18.7148896 17.2470995,18.7328032 17.2086995,18.7507811 C17.1974432,18.755959 17.1860905,18.7608474 17.174802,18.7658967 C17.0206231,18.8263912 16.8618131,18.8743751 16.7011055,18.9139329 C16.6165548,18.9347409 16.531007,18.9510464 16.4452342,18.9658726 C16.4346211,18.9677057 16.4184121,18.9701178 16.4021387,18.9724655 C16.3638995,18.9762605 16.3256281,18.9796374 16.2873246,18.9826283 C16.1084141,18.9963932 15.9285065,18.9942706 15.7495638,18.9826283 C15.7123859,18.9802163 15.5716503,18.9622384 15.544603,18.9598907 C15.4723698,18.946962 15.4005869,18.931557 15.3291256,18.9148655 C15.1648161,18.8764655 15.0041085,18.8239791 14.8467136,18.7635168 C14.8096322,18.7470826 14.7730653,18.729555 14.7365628,18.711963 C14.6477347,18.6691891 14.5613829,18.6214304 14.4762533,18.5717741 C14.4035377,18.529354 14.333009,18.4832675 14.2633166,18.4360555 C14.2379739,18.4189138 14.2131136,18.4010645 14.1883497,18.3831188 C14.1832683,18.3792595 14.1785729,18.3756253 14.1749065,18.3726987 C14.0329487,18.2593319 13.9013467,18.1334545 13.7773347,18.0008555 C13.7244623,17.9443489 13.6744201,17.8853017 13.6253106,17.8255148 C13.6002894,17.7919389 13.576394,17.757559 13.5524985,17.7231469 C13.4482332,17.572956 13.3577005,17.4135992 13.276591,17.2499007 C13.258999,17.2143309 13.2425327,17.1782464 13.2261628,17.142162 C13.1968,17.067356 13.1706854,16.9913922 13.1461146,16.9149459 C13.0889648,16.737161 13.0485387,16.554359 13.0187578,16.3701097 C13.0146412,16.3308092 13.0114573,16.2913801 13.008402,16.251951 C13.0015196,16.1625118 12.999397,16.0727831 12.9988824,15.9830866 C12.9983678,15.893358 13.0025809,15.8036937 13.008402,15.7141902 C13.0112965,15.6699369 13.0157347,15.6257479 13.0201729,15.5816233 C13.0211055,15.5729399 13.0222633,15.5643208 13.0232603,15.5556374 C13.0235819,15.5536113 13.0238714,15.5518103 13.024193,15.5496233 C13.0516905,15.3784957 13.0941106,15.2100052 13.1452141,15.0445057 C13.1694633,14.9660012 13.1977005,14.8887831 13.2271598,14.8121439 C13.2494151,14.7619087 13.2734714,14.7124776 13.2978492,14.6632394 C13.3727518,14.5120836 13.4603899,14.3675208 13.5549749,14.2279429 C13.573596,14.2004454 13.5931819,14.1736555 13.6126714,14.1468012 C13.6147296,14.1441319 13.6166593,14.1416555 13.6183638,14.1395329 C13.679405,14.0630866 13.7446593,13.9901138 13.8114573,13.9186846 C13.9216402,13.8008796 14.0412784,13.6922726 14.1657085,13.5898082 C14.1992201,13.5648193 14.2335678,13.540956 14.2679156,13.5171248 C14.3486392,13.4611007 14.4324181,13.4096434 14.5172583,13.3601801 C14.5902955,13.3175992 14.6654231,13.2787489 14.7411618,13.2412173 C14.7766995,13.2236253 14.8127518,13.2071912 14.848804,13.1908213 C15.0172945,13.1245057 15.1913487,13.0730163 15.3675256,13.0318505 C15.4512402,13.0122967 15.5359196,12.9971489 15.6207598,12.9834806 C15.6601568,12.9793319 15.6996503,12.9761479 15.7391116,12.9730927 C15.9328161,12.9581701 16.1276784,12.9616113 16.3212221,12.9765017 C16.3576281,12.9792997 16.3939377,12.9832233 16.4302151,12.9872756 C16.4483216,12.9902344 16.4664281,12.9930967 16.4845025,12.9963449 C16.5985447,13.0160273 16.7111719,13.0430424 16.822802,13.0732736 C16.9332101,13.1031831 17.041592,13.1401037 17.1486874,13.1800474 C17.159397,13.1840997 17.1700422,13.1884414 17.1807196,13.1926223 C17.2303437,13.2146525 17.2791638,13.2383871 17.3278553,13.2625077 C17.5003015,13.347959 17.6640965,13.4498444 17.8209769,13.561153 C17.8442291,13.5786163 17.8712442,13.5990706 17.8840121,13.6095228 C17.9273327,13.6448997 17.9691739,13.6819168 18.0108221,13.7191912 C18.0941508,13.7937077 18.1727839,13.8732414 18.2491015,13.9548334 C18.2946412,14.0035248 18.3378975,14.0542746 18.3804141,14.1056032 C18.3977487,14.1286304 18.4356663,14.177965 18.4499457,14.1980655 C18.4824603,14.243766 18.5131095,14.2907208 18.5435015,14.3378364 C18.6045106,14.432357 18.659602,14.5306082 18.711799,14.6302103 C18.7380101,14.6802525 18.7622271,14.7312917 18.7861548,14.7824273 C18.7918151,14.7946806 18.7971538,14.8070947 18.8026854,14.8194444 C18.8784241,15.0130525 18.9349628,15.2138002 18.9774794,15.4171851 C18.9889608,15.4721158 18.9982553,15.5274645 19.007196,15.5828776 C19.0083216,15.5936836 19.0096402,15.6044896 19.0106693,15.6153278 C19.022601,15.7340012 19.0267819,15.8533821 19.0275216,15.9726665 C19.0269749,16.0624595 19.0238231,16.1519309 19.018002,16.2415309 M18.4220945,17.8586899 C18.637625,17.641473 18.5102457,17.7730176 18.4220945,17.8586899 M14.1921769,18.3860133 C14.4102447,18.6024033 14.2765881,18.4729045 14.1921769,18.3860133 M13.6803665,14.1577359 C13.4648359,14.3749528 13.5922153,14.2434082 13.6803665,14.1577359 M18.0891337,12.028369 C16.6278432,11.2624917 14.7732261,11.36576 13.4323779,12.3417439 C12.7870392,12.8114525 12.2527518,13.4327027 11.9380905,14.1708253 C11.5852221,14.9985158 11.488193,15.8526424 11.6202774,16.7412133 C11.8611296,18.3613459 13.097198,19.6880113 14.6162814,20.2152555 C15.9258693,20.6697841 17.4763739,20.4275168 18.5940905,19.6139771 C19.7592121,18.7659288 20.4665889,17.4304836 20.4751116,15.983151 C20.4751759,15.9698364 20.4748221,15.9566183 20.4741789,15.9434645 C20.4500583,14.3160314 19.5375276,12.7874927 18.0891337,12.028369" id="Fill-4"></path>
                </g>
            </g>
        </g>
    </g>
</svg>