<?xml version="1.0" encoding="UTF-8" standalone="no"?>
<svg width="64px" height="64px" viewBox="0 0 64 64" version="1.1" xmlns="http://www.w3.org/2000/svg" xmlns:xlink="http://www.w3.org/1999/xlink">
    <!-- Generator: Sketch 3.8.1 (29687) - http://www.bohemiancoding.com/sketch -->
    <title>Group 3</title>
    <desc>Created with Sketch.</desc>
    <defs>
        <path d="M27.0017641,0.00472548069 C12.0959641,-0.282074519 0.283764079,12.5279255 0.00476407876,27.0005255 C-0.283235921,41.9051255 12.5285641,53.7161255 27.0017641,53.9951255 C41.7497641,54.2795255 53.4635641,41.7395255 53.9789641,27.4565255 C53.9933641,27.3095255 54.0017641,27.1589255 53.9987641,27.0005255 C54.0017641,26.8433255 53.9933641,26.6933255 53.9795641,26.5475255 C53.4629641,11.8583255 41.7557641,0.289125481 27.0017641,0.00472548069 Z" id="path-1"></path>
        <filter x="-50%" y="-50%" width="200%" height="200%" filterUnits="objectBoundingBox" id="filter-2">
            <feOffset dx="0" dy="2" in="SourceAlpha" result="shadowOffsetOuter1"></feOffset>
            <feGaussianBlur stdDeviation="2.5" in="shadowOffsetOuter1" result="shadowBlurOuter1"></feGaussianBlur>
            <feColorMatrix values="0 0 0 0 0   0 0 0 0 0   0 0 0 0 0  0 0 0 0.5 0" type="matrix" in="shadowBlurOuter1"></feColorMatrix>
        </filter>
    </defs>
    <g id="1-Wifi" stroke="none" stroke-width="1" fill="none" fill-rule="evenodd">
        <g id="Group-3" transform="translate(5.000000, 3.000000)">
            <g id="Shape">
                <use fill="black" fill-opacity="1" filter="url(#filter-2)" xlink:href="#path-1"></use>
                <use fill="#525252" fill-rule="evenodd" xlink:href="#path-1"></use>
            </g>
            <path d="M26.277,40.5834 C26.4168,40.7448 26.5668,40.8234 26.727,40.8234 C27.0072,40.8234 27.2766,40.7034 27.537,40.4628 C28.2768,39.8634 29.1468,38.784 30.147,37.2246 L30.9864,37.7046 C28.5474,41.943 25.9572,44.0628 23.2188,44.0628 C22.1784,44.0628 21.3486,43.767 20.73,43.1778 C20.1096,42.5886 19.8,41.8422 19.8,40.9422 C19.8,40.3434 19.9392,39.5832 20.22,38.6634 L23.5788,27.1182 C23.8986,26.019 24.0594,25.1892 24.0594,24.6294 C24.0594,24.2688 23.9034,23.9508 23.5944,23.6688 C23.2836,23.3892 22.869,23.25 22.35,23.25 C22.0896,23.25 21.7992,23.2602 21.4794,23.2794 L21.78,22.32 L29.9676,21 L31.407,21 L26.4576,38.1552 C26.1972,39.1356 26.0682,39.7842 26.0682,40.104 C26.0682,40.2648 26.1372,40.4244 26.277,40.5834 L26.277,40.5834 Z" id="Path" fill="#FFFFFF"></path>
            <path d="M32.4282,15.6732 C31.7286,16.3626 30.8886,16.7064 29.9088,16.7064 C28.9494,16.7064 28.1244,16.3626 27.4344,15.6732 C26.745,14.9832 26.4,14.1486 26.4,13.1688 C26.4,12.1902 26.739,11.3496 27.4188,10.6488 C28.0992,9.9504 28.929,9.6 29.9082,9.6 C30.9078,9.6 31.7526,9.9504 32.4432,10.6488 C33.132,11.3496 33.4782,12.1896 33.4782,13.1688 C33.4782,14.1486 33.1278,14.9826 32.4282,15.6732 L32.4282,15.6732 Z" id="Path" fill="#FFFFFF"></path>
        </g>
    </g>
</svg>