<?xml version="1.0" encoding="UTF-8" standalone="no"?>
<svg width="54px" height="54px" viewBox="0 0 54 54" version="1.1" xmlns="http://www.w3.org/2000/svg" xmlns:xlink="http://www.w3.org/1999/xlink">
    <!-- Generator: Sketch 3.8.1 (29687) - http://www.bohemiancoding.com/sketch -->
    <title>Group 2</title>
    <desc>Created with Sketch.</desc>
    <defs></defs>
    <g id="2-Subway-Entrance" stroke="none" stroke-width="1" fill="none" fill-rule="evenodd">
        <g id="Desktop:-Subway-Entrance-map-view" transform="translate(-98.000000, -656.000000)">
            <g id="Group-2" transform="translate(98.000000, 656.000000)">
                <circle id="Current-Loc-Btn-Copy" fill="#FFFFFF" cx="27" cy="27" r="27"></circle>
                <g id="search" transform="translate(14.000000, 13.000000)" fill="#898989">
                    <path d="M3.26314444,19.0188444 C5.43846667,21.1941667 8.28981111,22.2819889 11.1408333,22.2819889 C13.6061556,22.2819889 16.0705111,21.4670889 18.0992222,19.8405111 L19.3207667,21.0620556 C19.2163667,21.7084333 19.4084111,22.3934778 19.9068889,22.8919556 L25.3969111,28.3819778 C25.8087111,28.7937778 26.3490778,29 26.8891222,29 C27.4291667,29 27.9695333,28.7937778 28.3816556,28.3816556 C29.2062222,27.5574111 29.2062222,26.2208333 28.3816556,25.3965889 L22.8916333,19.9065667 C22.3934778,19.4080889 21.7084333,19.2160444 21.0617333,19.3204444 L19.8401889,18.0989 C23.3475778,13.7244111 23.0749778,7.31927778 19.0185222,3.26282222 C16.8432,1.08782222 13.9921778,0 11.1408333,0 C8.28948889,0 5.43846667,1.08782222 3.26314444,3.26314444 C-1.08782222,7.61378889 -1.08782222,14.6678778 3.26314444,19.0188444 L3.26314444,19.0188444 Z M5.50194444,5.50162222 C7.00801111,3.99587778 9.01094444,3.16615556 11.1411556,3.16615556 C13.2710444,3.16615556 15.2739778,3.99555556 16.7800444,5.50162222 C19.8888444,8.61074444 19.8888444,13.6702778 16.7797222,16.7797222 C15.2736556,18.2854667 13.2710444,19.1151889 11.1408333,19.1151889 C9.01062222,19.1151889 7.00768889,18.2857889 5.5013,16.7797222 C2.39314444,13.6706 2.39314444,8.61106667 5.50194444,5.50162222 L5.50194444,5.50162222 Z" id="Shape"></path>
                </g>
            </g>
        </g>
    </g>
</svg>