<?xml version="1.0" encoding="UTF-8" standalone="no"?>
<svg width="42px" height="42px" viewBox="0 0 42 42" version="1.1" xmlns="http://www.w3.org/2000/svg" xmlns:xlink="http://www.w3.org/1999/xlink">
    <!-- Generator: Sketch 3.8.1 (29687) - http://www.bohemiancoding.com/sketch -->
    <title>Group</title>
    <desc>Created with Sketch.</desc>
    <defs>
        <linearGradient x1="50%" y1="0%" x2="50%" y2="100%" id="linearGradient-1">
            <stop stop-color="#AF35F7" offset="0%"></stop>
            <stop stop-color="#7115AE" offset="100%"></stop>
        </linearGradient>
        <path d="M17,34 C26.3888407,34 34,26.3888407 34,17 C34,7.61115925 26.3888407,0 17,0 C7.61115925,0 0,7.61115925 0,17 C0,26.3888407 7.61115925,34 17,34 Z" id="path-2"></path>
        <filter x="-50%" y="-50%" width="200%" height="200%" filterUnits="objectBoundingBox" id="filter-3">
            <feOffset dx="0" dy="2" in="SourceAlpha" result="shadowOffsetOuter1"></feOffset>
            <feGaussianBlur stdDeviation="2" in="shadowOffsetOuter1" result="shadowBlurOuter1"></feGaussianBlur>
            <feColorMatrix values="0 0 0 0 0   0 0 0 0 0   0 0 0 0 0  0 0 0 0.5 0" type="matrix" in="shadowBlurOuter1"></feColorMatrix>
        </filter>
    </defs>
    <g id="2-Subway-Entrance" stroke="none" stroke-width="1" fill="none" fill-rule="evenodd">
        <g id="Group" transform="translate(4.000000, 2.000000)">
            <g id="Marker-Copy-8">
                <g id="Marker">
                    <g id="Oval-31">
                        <use fill="black" fill-opacity="1" filter="url(#filter-3)" xlink:href="#path-2"></use>
                        <use fill="url(#linearGradient-1)" fill-rule="evenodd" xlink:href="#path-2"></use>
                    </g>
                </g>
            </g>
            <g id="noun_128298_cc" transform="translate(9.000000, 8.000000)" fill="#FFFFFF">
                <path d="M11.5460696,0.124553571 C10.7141334,0.124553571 10.0336825,0.8135101 10.0336825,1.65584544 L10.0336825,6.15985714 L0.145777778,6.15985714 L0.145777778,7.72165836 L10.0336825,7.72165836 C10.0336825,8.02481032 10.106001,8.28053412 10.2306407,8.502975 L0.566539683,8.502975 C0.566539683,10.9550944 2.49420995,13.0441526 5.19492063,13.8396145 L5.19492063,17.8754464 L12.4884009,17.8754464 L12.4884009,12.603986 C13.6134459,11.7347469 14.3807338,10.5676257 14.5974152,9.25988417 C15.3085466,9.13590527 15.8542222,8.50630329 15.8542222,7.7521677 L15.8542222,1.65584544 C15.8542222,0.8135101 15.1737713,0.124553571 14.3415613,0.124553571 L11.5460696,0.124553571 Z" id="Shape"></path>
            </g>
        </g>
    </g>
</svg>