<?xml version="1.0" encoding="UTF-8" standalone="no"?>
<svg width="39px" height="39px" viewBox="0 0 39 39" version="1.1" xmlns="http://www.w3.org/2000/svg" xmlns:xlink="http://www.w3.org/1999/xlink">
    <!-- Generator: Sketch 3.8.1 (29687) - http://www.bohemiancoding.com/sketch -->
    <title>Toilet</title>
    <desc>Created with Sketch.</desc>
    <defs></defs>
    <g id="2-Subway-Entrance" stroke="none" stroke-width="1" fill="none" fill-rule="evenodd">
        <g id="Tablet:-Subway-Entrance-map-view" transform="translate(-581.000000, -101.000000)" fill="#FFFFFF">
            <g id="Toilet" transform="translate(581.000000, 101.000000)">
                <path d="M35.75,16.25 L19.5,16.25 C17.7233333,16.25 16.25,17.7233333 16.25,19.5 C16.25,19.89 16.3366667,20.2366667 16.4233333,20.5833333 L14.1266667,20.5833333 L15.08,7.41 C16.38,6.97666667 17.29,5.76333333 17.29,4.33333333 C17.29,2.55666667 15.8166667,1.08333333 14.04,1.08333333 L10.8333333,1.08333333 C10.8333333,0.476666667 10.3566667,0 9.75,0 L7.58333333,0 C6.97666667,0 6.5,0.476666667 6.5,1.08333333 L3.25,1.08333333 C1.47333333,1.08333333 0,2.55666667 0,4.33333333 C0,5.76333333 0.953333333,6.97666667 2.21,7.41 L3.25,21.7533333 C3.29333333,22.3166667 3.77,22.75 4.33333333,22.75 L8.01666667,22.75 L10.8333333,28.4266667 L10.8333333,29.25 L7.58333333,29.25 C6.97666667,29.25 6.5,29.7266667 6.5,30.3333333 L6.5,35.75 C6.5,36.3566667 6.97666667,36.8333333 7.58333333,36.8333333 L10.8333333,36.8333333 L10.8333333,37.9166667 C10.8333333,38.5233333 11.31,39 11.9166667,39 L26,39 C26.52,39 26.9533333,38.6533333 27.04,38.1766667 L27.9933333,34.0166667 C32.9333333,32.3266667 36.4433333,27.7766667 36.79,22.5766667 C38.09,22.1433333 39,20.93 39,19.5 C39,17.7233333 37.5266667,16.25 35.75,16.25 L35.75,16.25 Z M3.25,5.41666667 C2.64333333,5.41666667 2.16666667,4.94 2.16666667,4.33333333 C2.16666667,3.72666667 2.64333333,3.25 3.25,3.25 L14.0833333,3.25 C14.69,3.25 15.1666667,3.72666667 15.1666667,4.33333333 C15.1666667,4.94 14.69,5.41666667 14.0833333,5.41666667 L3.25,5.41666667 L3.25,5.41666667 Z M5.33,20.5833333 L4.42,7.58333333 L12.9133333,7.58333333 L12.0033333,20.5833333 L8.66666667,20.5833333 L5.33,20.5833333 L5.33,20.5833333 Z M26.78,32.11 C26.39,32.1966667 26.0866667,32.5433333 26,32.9333333 L25.1333333,36.8333333 L13,36.8333333 L13,35.75 C13,35.1433333 12.5233333,34.6666667 11.9166667,34.6666667 L8.66666667,34.6666667 L8.66666667,31.4166667 L11.9166667,31.4166667 C12.5233333,31.4166667 13,30.94 13,30.3333333 L13,28.1666667 C13,27.9933333 12.9566667,27.82 12.87,27.69 L10.4,22.75 L13,22.75 L19.5,22.75 L34.6233333,22.75 C34.19,27.1266667 31.07,30.8966667 26.78,32.11 L26.78,32.11 Z M35.75,20.5833333 L19.5,20.5833333 C18.8933333,20.5833333 18.4166667,20.1066667 18.4166667,19.5 C18.4166667,18.8933333 18.8933333,18.4166667 19.5,18.4166667 L35.75,18.4166667 C36.3566667,18.4166667 36.8333333,18.8933333 36.8333333,19.5 C36.8333333,20.1066667 36.3566667,20.5833333 35.75,20.5833333 L35.75,20.5833333 Z" id="Shape"></path>
            </g>
        </g>
    </g>
</svg>