<?xml version="1.0" encoding="UTF-8" standalone="no"?>
<svg width="31px" height="40px" viewBox="0 0 31 40" version="1.1" xmlns="http://www.w3.org/2000/svg" xmlns:xlink="http://www.w3.org/1999/xlink">
    <!-- Generator: Sketch 3.8.1 (29687) - http://www.bohemiancoding.com/sketch -->
    <title>Turnstile</title>
    <desc>Created with Sketch.</desc>
    <defs></defs>
    <g id="2-Subway-Entrance" stroke="none" stroke-width="1" fill="none" fill-rule="evenodd">
        <g id="Tablet:-Subway-Entrance-map-view" transform="translate(-328.000000, -101.000000)" fill="#FFFFFF">
            <g id="Turnstile" transform="translate(327.000000, 101.000000)">
                <path d="M17.4112243,0 L16.7690748,2.13369655 L23.7526847,8.76361872 L23.7526847,39.9901478 L31.8600563,39.9901478 L31.8600563,0 L17.4112243,0 L17.4112243,0 Z M30.24813,4.45223645 L24.4706566,4.45223645 L24.4706566,1.2983468 L30.24813,1.2983468 L30.24813,4.45223645 L30.24813,4.45223645 Z" id="Shape"></path>
                <path d="M22.7393803,9.16396453 L17.3466349,4.04433695 C16.867831,4.49889163 16.54348,5.04497931 16.3726457,5.62305911 L2.02491008,5.62305911 C1.51895991,5.62305911 1.10895775,6.01229655 1.10895775,6.49262266 C1.10895775,6.97294877 1.51895991,7.36218621 2.02491008,7.36218621 L16.3150769,7.36218621 C16.4634453,8.02202365 16.8065179,8.65075764 17.3471029,9.1635202 C17.7945482,9.58874877 18.3262405,9.88467586 18.8906956,10.0544118 L18.8906956,24.1153921 C18.8906956,24.5957182 19.3006977,24.9849557 19.8066479,24.9849557 C20.31213,24.9849557 20.7226002,24.5957182 20.7226002,24.1153921 L20.7226002,10.1659399 C21.4606977,10.0393044 22.1679047,9.7060532 22.7393803,9.16396453 L22.7393803,9.16396453 Z" id="Shape"></path>
            </g>
        </g>
    </g>
</svg>