<?xml version="1.0" encoding="UTF-8" standalone="no"?>
<svg width="70px" height="97px" viewBox="0 0 70 97" version="1.1" xmlns="http://www.w3.org/2000/svg" xmlns:xlink="http://www.w3.org/1999/xlink">
    <!-- Generator: Sketch 3.8.1 (29687) - http://www.bohemiancoding.com/sketch -->
    <title>Shape</title>
    <desc>Created with Sketch.</desc>
    <defs>
        <linearGradient x1="50%" y1="0%" x2="50%" y2="100%" id="linearGradient-1">
            <stop stop-color="#5196F5" offset="0%"></stop>
            <stop stop-color="#033B9F" offset="100%"></stop>
        </linearGradient>
        <path d="M34.6339277,2 C17.6839277,2 4.02392765,16.06 4.02392765,33.48 C4.02392765,33.48 2.02392765,57.31 34.5939277,90.72 C61.8239277,62.72 64.8839277,41.43 65.1639277,35.3 C65.1639277,34.73 65.2539277,34.15 65.2539277,33.48 C65.1739277,16.06 51.5139277,2 34.6339277,2 L34.6339277,2 Z M34.6339277,43.35 C27.3552132,43.2131227 21.5502257,37.2295201 21.6339277,29.95 C21.5502257,22.6704799 27.3552132,16.6868773 34.6339277,16.55 C41.9126421,16.6868773 47.7176296,22.6704799 47.6339277,29.95 C47.7065645,37.2217584 41.9047611,43.1931529 34.6339277,43.33 L34.6339277,43.35 Z" id="path-2"></path>
        <filter x="-50%" y="-50%" width="200%" height="200%" filterUnits="objectBoundingBox" id="filter-3">
            <feOffset dx="0" dy="2" in="SourceAlpha" result="shadowOffsetOuter1"></feOffset>
            <feGaussianBlur stdDeviation="2" in="shadowOffsetOuter1" result="shadowBlurOuter1"></feGaussianBlur>
            <feColorMatrix values="0 0 0 0 0   0 0 0 0 0   0 0 0 0 0  0 0 0 0.5 0" type="matrix" in="shadowBlurOuter1"></feColorMatrix>
        </filter>
    </defs>
    <g id="2-Subway-Entrance" stroke="none" stroke-width="1" fill="none" fill-rule="evenodd">
        <g id="Shape">
            <use fill="black" fill-opacity="1" filter="url(#filter-3)" xlink:href="#path-2"></use>
            <use fill="url(#linearGradient-1)" fill-rule="evenodd" xlink:href="#path-2"></use>
        </g>
    </g>
</svg>