<?xml version="1.0" encoding="UTF-8" standalone="no"?>
<svg width="39px" height="30px" viewBox="0 0 39 30" version="1.1" xmlns="http://www.w3.org/2000/svg" xmlns:xlink="http://www.w3.org/1999/xlink">
    <!-- Generator: Sketch 3.8.1 (29687) - http://www.bohemiancoding.com/sketch -->
    <title>Wifi</title>
    <desc>Created with Sketch.</desc>
    <defs></defs>
    <g id="2-Subway-Entrance" stroke="none" stroke-width="1" fill="none" fill-rule="evenodd">
        <g id="Tablet:-Subway-Entrance-map-view" transform="translate(-64.000000, -108.000000)" fill="#FFFFFF">
            <g id="Wifi" transform="translate(64.000000, 108.000000)">
                <path d="M3.73421518,10.9801738 C12.0513308,2.44003862 26.1395062,2.44003862 34.4990561,10.9801738 C34.9233988,11.415895 35.4750442,11.6337555 36.0266896,11.6337555 C36.578335,11.6337555 37.1299805,11.415895 37.5543231,10.9801738 C38.4030084,10.1087314 38.4030084,8.71442363 37.5543231,7.84298126 C32.6743828,2.83218768 26.1395062,0.0871442363 19.0954185,0.0871442363 C12.0513308,0.0871442363 5.51645424,2.83218768 0.636513951,7.84298126 C-0.212171317,8.71442363 -0.212171317,10.1087314 0.636513951,10.9801738 C1.48519922,11.8516161 2.88552991,11.8516161 3.73421518,10.9801738 L3.73421518,10.9801738 Z" id="Shape"></path>
                <path d="M25.7575979,22.1782081 C26.3092433,22.1782081 26.8608887,21.9603475 27.2852314,21.5246264 C28.1339166,20.653184 28.1339166,19.2588762 27.2852314,18.3874339 C22.8296337,13.8123614 15.3187691,13.8123614 10.8631714,18.3874339 C10.0144862,19.2588762 10.0144862,20.653184 10.8631714,21.5246264 C11.7118567,22.3960687 13.0697531,22.3960687 13.9184384,21.5246264 C16.6342312,18.7360108 21.429303,18.7360108 24.1875301,21.5246264 C24.654307,21.9603475 25.2059525,22.1782081 25.7575979,22.1782081 L25.7575979,22.1782081 Z" id="Shape"></path>
                <path d="M30.8921438,16.9059818 C31.4437892,16.9059818 31.9954346,16.6881212 32.4197772,16.2524001 C33.2684625,15.3809577 33.2684625,13.9866499 32.4197772,13.1152076 C24.9513469,5.44651477 13.2394902,5.44651477 5.77105982,13.1152076 C4.92237455,13.9866499 4.92237455,15.3809577 5.77105982,16.2524001 C6.61974509,17.1238424 7.97764152,17.1238424 8.82632679,16.2524001 C14.6822551,10.2394478 23.5085819,10.2394478 29.322076,16.2524001 C29.7888529,16.6881212 30.3404983,16.9059818 30.8921438,16.9059818 L30.8921438,16.9059818 Z" id="Shape"></path>
                <ellipse id="Oval" cx="19.0954185" cy="26.2739872" rx="3.60691239" ry="3.70363004"></ellipse>
            </g>
        </g>
    </g>
</svg>